<svg width="202" height="146" viewBox="0 0 202 146" fill="none" xmlns="http://www.w3.org/2000/svg">
<g clip-path="url(#clip0)">
<path d="M202 100.872C202 117.091 198.167 132.422 191.352 146H10.6482C3.8332 132.422 0 117.091 0 100.872C0 45.1617 45.2197 0 100.998 0C156.78 0 202 45.1617 202 100.872Z" fill="url(#paint0_linear)"/>
<path d="M154.504 30.7032L120.399 23.9909C120.237 23.961 120.096 24.0123 119.997 24.1063C119.993 24.1063 119.993 24.1106 119.993 24.1106C119.959 24.1448 119.924 24.1875 119.903 24.2345C119.89 24.2644 119.877 24.2943 119.869 24.3242C119.835 24.4524 119.86 24.6019 119.963 24.7216L137.803 45.7386C137.841 45.7814 137.88 45.8198 137.927 45.8583C137.948 45.8754 137.97 45.8839 137.987 45.8967C138.012 45.9138 138.038 45.9309 138.064 45.948C138.081 45.9565 138.102 45.9608 138.119 45.9694C138.149 45.9822 138.183 45.995 138.213 46.0078C138.23 46.0121 138.252 46.0121 138.269 46.0163C138.303 46.0249 138.337 46.0334 138.372 46.0334C138.393 46.0334 138.41 46.0334 138.432 46.0334C138.466 46.0334 138.5 46.0377 138.534 46.0334C138.556 46.0292 138.581 46.0249 138.603 46.0206C138.633 46.0163 138.663 46.0121 138.693 46.0035C138.722 45.995 138.752 45.9779 138.778 45.9651C138.799 45.9565 138.821 45.948 138.842 45.9394C138.881 45.9181 138.915 45.8924 138.949 45.8668C138.958 45.8583 138.971 45.854 138.983 45.8454L138.988 45.8412L142.894 42.5256L147.099 45.8497L149.503 36.8387L149.726 36.6465L154.889 32.1645C155.424 31.703 155.193 30.84 154.504 30.7032Z" fill="url(#paint1_linear)"/>
<path d="M131.21 146H83.2778V88.5674L131.206 101.787L131.21 146Z" fill="#EAEAEA"/>
<path d="M131.21 145.983H83.2778V88.55L131.21 101.77V145.983Z" fill="url(#paint2_linear)"/>
<path d="M131.188 146H179.116L179.137 88.5674L131.205 101.787L131.188 146Z" fill="#EAEAEA"/>
<path d="M131.188 146H179.116L179.137 88.5674L131.205 101.787L131.188 146Z" fill="url(#paint3_linear)"/>
<path d="M131.21 75.1768V101.787L83.2778 88.5714L131.21 75.1768Z" fill="url(#paint4_linear)"/>
<path d="M179.137 88.5714L131.209 101.787V75.1768L179.137 88.5714Z" fill="url(#paint5_linear)"/>
<path d="M118.944 121.048L72.5479 108.256C72.0602 108.119 71.8334 107.559 72.0944 107.123L83.2774 88.5715L131.205 101.787L119.8 120.706C119.624 120.997 119.274 121.138 118.944 121.048Z" fill="#EFEFEF"/>
<path d="M131.209 101.787L119.804 120.706C119.629 121.001 119.274 121.142 118.944 121.048L72.5479 108.256C72.0602 108.119 71.8334 107.559 72.0944 107.123L83.2774 88.5715" stroke="white" stroke-width="0.5" stroke-miterlimit="10"/>
<path d="M143.471 121.048L189.867 108.256C190.354 108.119 190.581 107.559 190.32 107.123L179.137 88.5715L131.209 101.787L142.615 120.706C142.79 120.997 143.141 121.138 143.471 121.048Z" fill="#EAEAEA"/>
<path d="M131.205 101.787L142.61 120.706C142.785 121.001 143.141 121.142 143.47 121.048L189.866 108.256C190.354 108.119 190.581 107.559 190.32 107.123L179.137 88.5715" stroke="white" stroke-width="0.5" stroke-miterlimit="10"/>
<path d="M150.085 46.7383C172.43 61.0644 161.2 87.8025 137.901 83.2864C137.901 83.2864 121.071 77.0056 116.66 89.9089" stroke="#A1B6E2" stroke-width="0.5" stroke-miterlimit="10" stroke-linecap="round" stroke-dasharray="2 3"/>
<path d="M145.297 40.5173L142.897 42.5511L147.107 45.8752L145.297 40.5173Z" fill="url(#paint6_linear)"/>
<path d="M119.968 24.7559L137.807 45.7729C138.107 46.1276 138.642 46.1703 138.992 45.8712L142.898 42.5556L145.294 40.5219L149.508 36.8688L149.726 36.6765L154.89 32.1945C155.42 31.7373 155.189 30.87 154.501 30.7333L120.396 24.021C120.233 23.9911 120.092 24.0423 119.998 24.1363C119.993 24.1363 119.993 24.1406 119.993 24.1406C119.959 24.1748 119.925 24.2175 119.904 24.2645C119.891 24.2944 119.878 24.3243 119.869 24.3542C119.839 24.4867 119.861 24.632 119.968 24.7559Z" fill="url(#paint7_linear)"/>
<path d="M119.967 24.7557L137.807 45.7728C138.106 46.1232 138.632 46.1702 138.988 45.8753C138.654 46.0249 138.252 45.9437 138.004 45.6532L120.018 24.619C119.86 24.4652 119.881 24.3285 119.873 24.3584C119.839 24.4866 119.86 24.6318 119.967 24.7557Z" fill="white"/>
<path d="M119.902 24.2643L145.293 40.5174L147.103 45.8752L149.507 36.8643L119.988 24.1404C119.954 24.1746 119.924 24.2173 119.902 24.2643Z" fill="url(#paint8_linear)"/>
<path d="M119.992 24.1404L149.511 36.8643L149.734 36.672L120.001 24.1318C119.996 24.1361 119.992 24.1361 119.992 24.1404Z" fill="white"/>
<g filter="url(#filter0_d)">
<path d="M70.4185 117.237C70.4185 117.237 75.2613 123.308 76.4164 146H41.1647C41.1647 146 36.4545 125.107 48.3605 116.356L70.4185 117.237Z" fill="#BBCFF9"/>
<path d="M48.3652 116.357L70.4189 117.237V115.468L48.3652 114.583V116.357Z" fill="#BBCFF9"/>
<path d="M66.0626 127.645L62.9224 129.618L59.4614 145.684" stroke="#8094CB" stroke-width="0.5" stroke-miterlimit="10" stroke-linecap="round"/>
<path d="M77.1439 69.9045C77.1439 69.9045 61.5287 77.6892 46.6494 68.8491C46.6494 68.8491 48.8484 65.2943 48.9168 60.7311C48.981 56.168 50.0077 43.4398 63.1972 43.286C77.0369 43.1236 76.361 57.9667 74.5984 61.8677C74.5984 61.8677 74.2176 65.9523 77.1439 69.9045Z" fill="#353535"/>
<path d="M58.3759 78.1163L58.2134 68.3235H68.2028L68.3654 78.1163" fill="#F5CDBC"/>
<path d="M58.2085 68.6782C58.2085 68.6782 61.1775 75.0402 68.3134 75.1769L68.1979 68.5757L58.2085 68.6782Z" fill="#E2AB98"/>
<path d="M56.9302 76.9158C57.0414 80.3125 59.835 83.0299 63.2618 83.0299C66.6886 83.0299 69.4779 80.3125 69.5934 76.9158H56.9302Z" fill="#F5CDBC"/>
<path d="M72.835 65.7728C74.9946 65.7728 76.7452 64.0244 76.7452 61.8676C76.7452 59.7108 74.9946 57.9624 72.835 57.9624C70.6755 57.9624 68.9248 59.7108 68.9248 61.8676C68.9248 64.0244 70.6755 65.7728 72.835 65.7728Z" fill="#E2AB98"/>
<path d="M56.8481 59.3469C56.8481 59.3427 56.8481 59.3427 56.8481 59.3469C59.6375 56.3903 59.8856 52.6646 59.8856 52.6646C59.8856 52.6646 64.784 58.0139 74.0119 57.5097V62.8249C74.0119 67.9819 69.8279 72.152 64.6728 72.152C60.3861 72.152 56.7754 69.268 55.6802 65.3286L55.4834 64.6023L56.8481 59.3469Z" fill="#F5CDBC"/>
<path d="M27.2692 114.54L19.0167 80.5175H13.7418L7.24329 78.206C6.70852 78.018 6.42189 77.4412 6.58446 76.8986C6.76414 76.3132 7.3973 76.0013 7.97057 76.2192L10.3834 77.1293L7.99196 75.1169C7.52137 74.7238 7.46575 74.0231 7.86789 73.5574C8.2572 73.1088 8.92887 73.049 9.39091 73.4207L11.5214 75.1383L9.75454 72.9464C9.37379 72.4721 9.44652 71.7757 9.92139 71.3954C10.3749 71.0323 11.0294 71.0793 11.423 71.5065L15.2434 75.6296L19.222 74.5102L16.206 74.1C15.6584 74.0274 15.2519 73.5531 15.2605 73.0019C15.269 72.3867 15.791 71.8996 16.407 71.9295L21.0659 72.1602C21.0659 72.1602 26.3494 73.1729 25.1173 78.3L32.8222 99.3854L37.7035 89.1311L48.2705 94.8778L37.1388 115.78C36.2147 117.518 34.4051 118.604 32.4371 118.604C29.9858 118.604 27.851 116.925 27.2692 114.54Z" fill="#F5CDBC"/>
<path d="M32.9253 99.6931L34.9446 105.162" stroke="#E2AB98" stroke-width="0.5" stroke-miterlimit="10" stroke-linecap="round" stroke-linejoin="round"/>
<path d="M69.9523 117.237L48.8911 116.378" stroke="#8094CB" stroke-width="0.5" stroke-miterlimit="10" stroke-linecap="round"/>
<path d="M66.2817 59.8167C66.2817 59.7398 66.3929 59.7312 66.41 59.8039L67.287 63.9141C67.3726 64.2859 67.1074 64.6619 66.7309 64.7088L66.2261 64.7772L66.2817 59.8167Z" fill="#E2AB98"/>
<path d="M63.0515 56.437C63.0515 56.437 62.4568 57.7316 60.4033 57.7615" stroke="#353535" stroke-width="0.5" stroke-miterlimit="10" stroke-linecap="round"/>
<path d="M68.2836 67.1103C68.2836 67.1103 66.1745 66.182 64.0269 67.213" stroke="#E2AB98" stroke-width="0.5" stroke-miterlimit="10" stroke-linecap="round"/>
<path d="M57.5063 64.8756L54.0667 64.6363C52.4496 64.5252 51.226 63.1238 51.3415 61.5087C51.4528 59.8937 52.856 58.6717 54.4731 58.7871L57.9127 59.0263L57.5063 64.8756Z" fill="#F5CDBC"/>
<path d="M62.1059 59.975H62.0546C61.8877 59.9792 61.7551 60.1202 61.7594 60.2869L61.7979 61.4576C61.8022 61.6242 61.9433 61.7566 62.1102 61.7524H62.1615C62.3284 61.7481 62.461 61.6071 62.4567 61.4405L62.4182 60.2698C62.4139 60.0989 62.2728 59.9707 62.1059 59.975Z" fill="#353535"/>
<path d="M70.3417 59.6202H70.2904C70.1236 59.6245 69.9909 59.7655 69.9952 59.9321L70.0337 61.1028C70.038 61.2695 70.1792 61.4019 70.346 61.3976H70.3974C70.5642 61.3934 70.6968 61.2524 70.6925 61.0857L70.654 59.915C70.6498 59.7441 70.5129 59.6159 70.3417 59.6202Z" fill="#353535"/>
<path d="M104.121 87.6529H83.5047V76.9102H90.5703L77.6993 62.8546C77.6993 62.8546 73.434 61.654 74.6062 55.4672L76.2875 50.2033C76.4715 49.6265 77.0961 49.3146 77.6693 49.5154L77.695 49.524C78.264 49.7205 78.5678 50.3272 78.3924 50.8955C78.0501 52.0064 77.5496 53.63 77.5496 53.63L80.463 49.7333C80.51 49.6735 80.5228 49.5966 80.5057 49.524L78.9742 43.4269C78.8629 42.9783 79.1154 42.5169 79.556 42.3716C79.9924 42.2263 80.4672 42.44 80.6469 42.8629L81.2287 44.2216L81.0448 43.256C80.9635 42.8373 81.2073 42.4229 81.6095 42.2861C82.0587 42.1323 82.5464 42.3673 82.7047 42.8117C82.8929 43.3415 83.1026 43.9396 83.1026 43.9396V43.5209C83.1026 43.0552 83.432 42.6493 83.894 42.5639C84.463 42.4571 84.9978 42.8629 85.0448 43.4398L85.7037 51.5962C85.7079 51.6688 85.6908 51.7457 85.6438 51.8056L81.6779 57.3343L107.458 78.2788C109.208 79.7015 109.862 82.0729 109.092 84.1878C108.335 86.2643 106.35 87.6529 104.121 87.6529Z" fill="#F5CDBC"/>
<path d="M95.0384 81.5899L90.7261 77.0566" stroke="#E2AB98" stroke-width="0.5" stroke-miterlimit="10" stroke-linecap="round" stroke-linejoin="round"/>
<path d="M77.8154 87.653H84.3609V76.9116H74.3715H69.5886C69.4773 80.3084 66.688 83.0257 63.2612 83.0257C59.8302 83.0257 57.0408 80.3084 56.9296 76.9116H48.1252C45.0279 76.9116 42.23 78.7446 40.9979 81.5773L37.708 89.1271L48.275 94.8737L45.9819 99.1934L48.3605 114.579L70.4142 115.464C70.4185 115.468 76.7416 103.898 77.8154 87.653Z" fill="white"/>
<path d="M50.8369 90.2808L48.5566 94.3739" stroke="#BBCFF9" stroke-width="0.5" stroke-miterlimit="10" stroke-linecap="round"/>
</g>
<g filter="url(#filter1_d)">
<path d="M66.3193 22.6745V35.2659C66.3193 37.4022 68.052 39.1326 70.191 39.1284H72.0007V43.9351L78.7558 39.1284H86.649C88.788 39.1284 90.5207 37.3979 90.5207 35.2616V22.6745C90.5207 20.5424 88.788 18.812 86.6532 18.812H70.1868C68.052 18.812 66.3193 20.5382 66.3193 22.6745Z" fill="white"/>
</g>
<path d="M78.4264 34.8941C79.0785 34.8941 79.6071 34.3662 79.6071 33.7149C79.6071 33.0636 79.0785 32.5356 78.4264 32.5356C77.7743 32.5356 77.2456 33.0636 77.2456 33.7149C77.2456 34.3662 77.7743 34.8941 78.4264 34.8941Z" fill="#8094CB"/>
<path d="M78.4262 22.6277C80.223 22.6277 81.6776 24.0804 81.6776 25.8749C81.6776 27.0669 81.3267 27.7335 80.4326 28.6606L80.2315 28.8615C79.4957 29.5963 79.3075 29.9082 79.3075 30.5961C79.3075 31.0832 78.9096 31.4806 78.4219 31.4806C77.9342 31.4806 77.5363 31.0832 77.5363 30.5961C77.5363 29.4041 77.8871 28.7375 78.7813 27.8104L78.9823 27.6096C79.7182 26.8747 79.9064 26.5628 79.9064 25.8749C79.9064 25.0588 79.2433 24.3966 78.4262 24.3966C77.6604 24.3966 77.0315 24.9776 76.9545 25.7211L76.9459 25.8706C76.9459 26.3577 76.5481 26.755 76.0604 26.755C75.5727 26.755 75.1748 26.3577 75.1748 25.8706C75.1748 24.0847 76.6336 22.6277 78.4262 22.6277Z" fill="#8094CB"/>
</g>
<defs>
<filter id="filter0_d" x="0.539062" y="36.239" width="122.872" height="123.761" filterUnits="userSpaceOnUse" color-interpolation-filters="sRGB">
<feFlood flood-opacity="0" result="BackgroundImageFix"/>
<feColorMatrix in="SourceAlpha" type="matrix" values="0 0 0 0 0 0 0 0 0 0 0 0 0 0 0 0 0 0 127 0"/>
<feOffset dx="4" dy="4"/>
<feGaussianBlur stdDeviation="5"/>
<feColorMatrix type="matrix" values="0 0 0 0 0.207843 0 0 0 0 0.247059 0 0 0 0 0.466667 0 0 0 0.1 0"/>
<feBlend mode="normal" in2="BackgroundImageFix" result="effect1_dropShadow"/>
<feBlend mode="normal" in="SourceGraphic" in2="effect1_dropShadow" result="shape"/>
</filter>
<filter id="filter1_d" x="60.3193" y="12.812" width="44.2013" height="45.1231" filterUnits="userSpaceOnUse" color-interpolation-filters="sRGB">
<feFlood flood-opacity="0" result="BackgroundImageFix"/>
<feColorMatrix in="SourceAlpha" type="matrix" values="0 0 0 0 0 0 0 0 0 0 0 0 0 0 0 0 0 0 127 0"/>
<feOffset dx="4" dy="4"/>
<feGaussianBlur stdDeviation="5"/>
<feColorMatrix type="matrix" values="0 0 0 0 0.207843 0 0 0 0 0.247059 0 0 0 0 0.466667 0 0 0 0.1 0"/>
<feBlend mode="normal" in2="BackgroundImageFix" result="effect1_dropShadow"/>
<feBlend mode="normal" in="SourceGraphic" in2="effect1_dropShadow" result="shape"/>
</filter>
<linearGradient id="paint0_linear" x1="101" y1="223.38" x2="101" y2="-39.7055" gradientUnits="userSpaceOnUse">
<stop stop-color="white"/>
<stop offset="0.53" stop-color="#EFF0F7"/>
<stop offset="1" stop-color="#E6E8F3"/>
</linearGradient>
<linearGradient id="paint1_linear" x1="632.108" y1="-91.5374" x2="-26.8026" y2="76.0597" gradientUnits="userSpaceOnUse">
<stop stop-color="white"/>
<stop offset="0.53" stop-color="#EFF0F7"/>
<stop offset="1" stop-color="#E6E8F3"/>
</linearGradient>
<linearGradient id="paint2_linear" x1="18.3391" y1="91.2838" x2="819.285" y2="385.662" gradientUnits="userSpaceOnUse">
<stop stop-color="#BDBDC9" stop-opacity="0"/>
<stop offset="0.6045" stop-color="#BCC4D7" stop-opacity="0.6045"/>
<stop offset="1" stop-color="#BBC9E3"/>
</linearGradient>
<linearGradient id="paint3_linear" x1="233.867" y1="107.577" x2="45.815" y2="141.012" gradientUnits="userSpaceOnUse">
<stop stop-color="#BDBDC9" stop-opacity="0"/>
<stop offset="0.6045" stop-color="#BCC4D7" stop-opacity="0.6045"/>
<stop offset="1" stop-color="#BBC9E3"/>
</linearGradient>
<linearGradient id="paint4_linear" x1="276.473" y1="-114.076" x2="97.4631" y2="107.841" gradientUnits="userSpaceOnUse">
<stop stop-color="#96A6D4"/>
<stop offset="0.5639" stop-color="#94A4D3"/>
<stop offset="0.8124" stop-color="#8D9ED0"/>
<stop offset="0.9987" stop-color="#8094CB"/>
<stop offset="1" stop-color="#8094CB"/>
</linearGradient>
<linearGradient id="paint5_linear" x1="180.638" y1="33.526" x2="80.4994" y2="224.125" gradientUnits="userSpaceOnUse">
<stop stop-color="#96A6D4"/>
<stop offset="0.5639" stop-color="#94A4D3"/>
<stop offset="0.8124" stop-color="#8D9ED0"/>
<stop offset="0.9987" stop-color="#8094CB"/>
<stop offset="1" stop-color="#8094CB"/>
</linearGradient>
<linearGradient id="paint6_linear" x1="132.822" y1="68.5768" x2="149.617" y2="34.8863" gradientUnits="userSpaceOnUse">
<stop stop-color="#BDBDC9" stop-opacity="0"/>
<stop offset="0.6045" stop-color="#BCC4D7" stop-opacity="0.6045"/>
<stop offset="1" stop-color="#BBC9E3"/>
</linearGradient>
<linearGradient id="paint7_linear" x1="122.991" y1="5.69054" x2="167.66" y2="74.2977" gradientUnits="userSpaceOnUse">
<stop stop-color="#BDBDC9" stop-opacity="0"/>
<stop offset="0.6045" stop-color="#BCC4D7" stop-opacity="0.6045"/>
<stop offset="1" stop-color="#BBC9E3"/>
</linearGradient>
<linearGradient id="paint8_linear" x1="90.0961" y1="21.0331" x2="209.96" y2="59.6834" gradientUnits="userSpaceOnUse">
<stop stop-color="#BDBDC9"/>
<stop offset="0.6045" stop-color="#BCC4D7"/>
<stop offset="1" stop-color="#BBC9E3"/>
</linearGradient>
<clipPath id="clip0">
<rect width="202" height="146" fill="white"/>
</clipPath>
</defs>
</svg>
